HIERARCHY
ROOT Hips
{
	OFFSET 0.00 0.00 0.00
	CHANNELS 6 Xposition Yposition Zposition Xrotation Yrotation Zrotation
	JOINT Spine
	{
		OFFSET 0.00000 0.84964 1.27446
		CHANNELS 3 Xrotation Yrotation Zrotation
		JOINT Spine1
		{
			OFFSET 0.00000 0.29508 1.67346
			CHANNELS 3 Xrotation Yrotation Zrotation
			JOINT Spine2
			{
				OFFSET 0.00000 0.14810 1.69281
				CHANNELS 3 Xrotation Yrotation Zrotation
				JOINT Spine3
				{
					OFFSET 0.00000 0.00000 1.69928
					CHANNELS 3 Xrotation Yrotation Zrotation
					JOINT Neck
					{
						OFFSET 0.00000 -0.63723 4.46061
						CHANNELS 3 Xrotation Yrotation Zrotation
						JOINT Head
						{
							OFFSET 0.00000 -0.40573 2.30101
							CHANNELS 3 Xrotation Yrotation Zrotation
							End Site
							{
								OFFSET 0.00000 0.00000 2.75071
							}
						}
					}
					JOINT RightShoulder
					{
						OFFSET -0.72014 -1.20022 3.88874
						CHANNELS 3 Xrotation Yrotation Zrotation
						JOINT RightArm
						{
							OFFSET -3.57668 0.00000 0.00000
							CHANNELS 3 Xrotation Yrotation Zrotation
							JOINT RightForeArm
							{
								OFFSET -5.92485 0.00000 0.00000
								CHANNELS 3 Xrotation Yrotation Zrotation
								JOINT RightHand
								{
									OFFSET -6.63013 0.00000 0.00000
									CHANNELS 3 Xrotation Yrotation Zrotation
									JOINT RightHandEnd
									{
										OFFSET -1.65321 0.00000 0.00000
										CHANNELS 3 Xrotation Yrotation Zrotation
										End Site
										{
											OFFSET -1.65321 0.00000 0.00000
										}
									}
									JOINT RightHandThumb1
									{
										OFFSET -0.66129 -1.10214 -0.44086
										CHANNELS 3 Yrotation Xrotation Zrotation
										End Site
										{
											OFFSET -1.59688 -0.42788 0.00000
										}
									}
								}
							}
						}
					}
					JOINT LeftShoulder
					{
						OFFSET 0.72014 -1.20022 3.88874
						CHANNELS 3 Xrotation Yrotation Zrotation
						JOINT LeftArm
						{
							OFFSET 3.57668 0.00000 0.00000
							CHANNELS 3 Xrotation Yrotation Zrotation
							JOINT LeftForeArm
							{
								OFFSET 5.92485 0.00000 0.00000
								CHANNELS 3 Xrotation Yrotation Zrotation
								JOINT LeftHand
								{
									OFFSET 6.63013 0.00000 0.00000
									CHANNELS 3 Xrotation Yrotation Zrotation
									JOINT LeftHandEnd
									{
										OFFSET 1.65321 0.00000 0.00000
										CHANNELS 3 Xrotation Yrotation Zrotation
										End Site
										{
											OFFSET 1.65321 0.00000 0.00000
										}
									}
									JOINT LeftHandThumb1
									{
										OFFSET 0.66129 -1.10214 -0.44086
										CHANNELS 3 Yrotation Xrotation Zrotation
										End Site
										{
											OFFSET 1.59688 -0.42788 0.00000
										}
									}
								}
							}
						}
					}
				}
			}
		}
	}
	JOINT RightUpLeg
	{
		OFFSET -2.13640 0.00000 -0.62412
		CHANNELS 3 Xrotation Yrotation Zrotation
		JOINT RightLeg
		{
			OFFSET 0.00000 0.00000 -11.49360
			CHANNELS 3 Xrotation Yrotation Zrotation
			JOINT RightFoot
			{
				OFFSET 0.00000 0.00000 -8.79036
				CHANNELS 3 Xrotation Yrotation Zrotation
				JOINT RightToeBase
				{
					OFFSET 0.00000 -3.94625 -1.43632
					CHANNELS 3 Xrotation Yrotation Zrotation
					End Site
					{
						OFFSET 0.00000 -1.72833 -0.00000
					}
				}
			}
		}
	}
	JOINT LeftUpLeg
	{
		OFFSET 2.13640 0.00000 -0.62412
		CHANNELS 3 Xrotation Yrotation Zrotation
		JOINT LeftLeg
		{
			OFFSET 0.00000 0.00000 -11.49360
			CHANNELS 3 Xrotation Yrotation Zrotation
			JOINT LeftFoot
			{
				OFFSET 0.00000 0.00000 -8.79036
				CHANNELS 3 Xrotation Yrotation Zrotation
				JOINT LeftToeBase
				{
					OFFSET 0.00000 -3.94625 -1.43632
					CHANNELS 3 Xrotation Yrotation Zrotation
					End Site
					{
						OFFSET 0.00000 -1.72833 -0.00000
					}
				}
			}
		}
	}
}
MOTION
Frames: 9
Frame Time: 0.008342
 1.0256 37.2616 20.9154 6.7932 1.8602 -166.0583 34.7898 -1.9693 0.8806 5.1278 -1.5270 0.6399 9.3497 -1.8785 10.5327 0.5252 2.5989 1.3921 -10.5881 25.2445 13.3702 -4.4443 -0.9392 16.6695 -3.0976 17.1985 7.7022 -24.5743 -53.0521 -1.0824 -0.0001 0.0001 137.3519 43.8190 8.3158 -39.9761 0.0000 -0.0000 0.0000 -0.0000 0.0000 -0.0000 0.4056 -8.5070 -13.0527 39.9761 63.0671 -82.9453 -0.0001 -0.0001 -100.0978 12.2644 -32.8031 2.9875 -0.0000 -0.0000 -0.0000 0.0000 -0.0000 -0.0000 -23.7346 10.8853 -8.5785 82.0725 0.0000 0.0000 -17.5772 -1.1215 11.0063 -5.3803 0.0000 -0.0000 -30.4644 8.9060 -17.7206 46.0299 0.0000 0.0000 -15.7799 -0.9717 -1.2872 2.7264 0.0000 0.0000
 1.0760 37.1557 20.8782 7.0200 2.2291 -166.1640 34.5453 -1.8153 0.7709 5.1100 -1.5068 0.6331 9.3482 -1.8056 10.4983 0.5547 2.6052 1.3548 -10.6718 25.1893 13.9180 -4.4431 -1.0588 17.7373 -3.0218 17.1712 7.8068 -24.3891 -53.2730 -1.0057 -0.0001 0.0001 137.2483 44.1882 8.7215 -39.9811 0.0000 0.0000 0.0000 0.0000 0.0000 -0.0000 0.3874 -8.3067 -13.0911 40.1511 63.1235 -82.8481 -0.0001 -0.0001 -100.0636 12.1823 -32.7569 2.8894 -0.0000 -0.0000 -0.0000 0.0000 -0.0000 -0.0000 -22.5536 11.0005 -9.0029 81.0837 0.0000 0.0000 -19.6967 -0.0039 11.1917 -5.7926 0.0000 -0.0000 -30.4675 9.0286 -17.5090 45.9415 0.0000 0.0000 -15.7872 -0.8692 -1.3216 2.7871 0.0000 0.0000
 1.1291 37.0469 20.8426 7.2201 2.5888 -166.2841 34.3078 -1.6634 0.6709 5.0917 -1.4872 0.6279 9.3280 -1.7274 10.4897 0.5815 2.6125 1.3147 -10.7520 25.1482 14.4795 -4.4320 -1.1831 18.8276 -2.9302 17.1548 7.9222 -24.2597 -53.4805 -0.9906 -0.0001 0.0001 137.1709 44.5741 9.1461 -40.0117 -0.0000 0.0000 0.0000 0.0000 -0.0000 -0.0000 0.3856 -8.1089 -13.0932 40.3730 63.1472 -82.8319 -0.0001 -0.0001 -100.0115 12.1082 -32.7458 2.7956 0.0000 0.0000 -0.0000 0.0000 0.0000 -0.0000 -21.4126 11.1121 -9.5362 80.0582 0.0000 0.0000 -22.0567 1.1348 11.3029 -6.1352 0.0000 -0.0000 -30.5054 9.1081 -17.2196 45.8320 0.0000 0.0000 -15.8117 -0.7723 -1.4149 2.8736 0.0000 0.0000
 1.1849 36.9346 20.8093 7.3979 2.9300 -166.4229 34.0867 -1.5198 0.5836 5.0733 -1.4699 0.6229 9.2867 -1.6481 10.5098 0.6060 2.6250 1.2764 -10.8298 25.1257 15.0505 -4.4119 -1.3084 19.9321 -2.8302 17.1527 8.0445 -24.1889 -53.6790 -1.0417 -0.0001 0.0001 137.1087 44.9550 9.6062 -40.0525 0.0000 -0.0000 0.0000 -0.0000 0.0000 -0.0000 0.3862 -7.8980 -13.0615 40.6414 63.1429 -82.8797 -0.0001 -0.0001 -99.9492 12.0367 -32.7543 2.7117 0.0000 0.0000 -0.0000 0.0000 0.0000 -0.0000 -20.3411 11.2052 -10.1589 79.0100 0.0000 0.0000 -24.5247 2.2565 11.3287 -6.3795 0.0000 -0.0000 -30.5714 9.1368 -16.8642 45.7004 0.0000 0.0000 -15.8577 -0.6760 -1.5548 2.9824 0.0000 0.0000
 1.2434 36.8182 20.7791 7.5579 3.2386 -166.5822 33.8846 -1.3984 0.5115 5.0521 -1.4485 0.6240 9.2329 -1.5699 10.5587 0.6254 2.6377 1.2330 -10.9074 25.1249 15.6330 -4.3860 -1.4301 21.0437 -2.7158 17.1580 8.1764 -24.1977 -53.8542 -1.1580 -0.0001 0.0001 137.0576 45.2959 10.0812 -40.1104 -0.0000 -0.0000 -0.0000 0.0000 -0.0000 -0.0000 0.3822 -7.6717 -12.9894 40.9695 63.1265 -82.9979 -0.0001 -0.0001 -99.8812 11.9673 -32.7716 2.6406 -0.0000 -0.0000 -0.0000 0.0000 -0.0000 -0.0000 -19.3671 11.2614 -10.8488 77.9537 0.0000 0.0000 -26.9660 3.3342 11.2627 -6.5082 0.0000 -0.0000 -30.6579 9.1051 -16.4626 45.5447 0.0000 0.0000 -15.9308 -0.5762 -1.7287 3.1072 0.0000 0.0000
 1.3047 36.6972 20.7524 7.6931 3.5004 -166.7618 33.6915 -1.3005 0.4630 5.0324 -1.4394 0.6171 9.1637 -1.4854 10.6419 0.6427 2.6498 1.1894 -10.9844 25.1496 16.2209 -4.3564 -1.5462 22.1546 -2.5931 17.1673 8.3115 -24.2530 -54.0032 -1.3068 -0.0001 0.0001 136.9872 45.6165 10.6761 -40.1479 0.0000 0.0000 -0.0000 0.0000 -0.0000 -0.0000 0.3747 -7.4225 -12.8853 41.3323 63.1070 -83.1587 -0.0001 -0.0001 -99.8153 11.8915 -32.7907 2.5824 -0.0000 -0.0000 0.0000 -0.0000 -0.0000 0.0000 -18.5270 11.2647 -11.5761 76.9080 0.0000 0.0000 -29.2609 4.3497 11.1043 -6.5139 0.0000 -0.0000 -30.7687 9.0069 -16.0373 45.3623 0.0000 0.0000 -16.0363 -0.4696 -1.9238 3.2386 0.0000 0.0000
 1.3685 36.5720 20.7303 7.8231 3.7224 -166.9601 33.5263 -1.2350 0.4259 5.0096 -1.4199 0.6216 9.0900 -1.4174 10.7439 0.6583 2.6694 1.1476 -11.0597 25.1998 16.8100 -4.3259 -1.6529 23.2568 -2.4726 17.1842 8.4537 -24.3546 -54.1352 -1.4965 -0.0001 0.0001 136.8939 45.9004 11.3915 -40.1563 0.0000 -0.0000 0.0000 0.0000 -0.0000 -0.0000 0.3505 -7.1392 -12.7548 41.7151 63.0919 -83.3350 -0.0001 -0.0001 -99.7565 11.8080 -32.7983 2.5420 0.0000 0.0000 -0.0000 0.0000 -0.0000 0.0000 -17.8146 11.2166 -12.3055 75.8877 0.0000 0.0000 -31.3173 5.2868 10.8608 -6.4020 0.0000 -0.0000 -30.8698 8.8514 -15.6098 45.1394 0.0000 0.0000 -16.1770 -0.3582 -2.1250 3.3646 0.0000 0.0000
 1.4345 36.4422 20.7131 7.9262 3.9177 -167.1768 33.3634 -1.1702 0.3981 4.9855 -1.4191 0.6305 9.0171 -1.3462 10.8590 0.6742 2.6884 1.1078 -11.1343 25.2765 17.3984 -4.2985 -1.7492 24.3412 -2.3512 17.2009 8.5959 -24.4800 -54.2469 -1.6923 -0.0001 0.0001 136.7636 46.1560 12.2648 -40.1249 0.0000 -0.0000 -0.0000 -0.0000 -0.0000 0.0000 0.3067 -6.8200 -12.6033 42.1070 63.0903 -83.5127 -0.0001 -0.0001 -99.7078 11.7174 -32.7887 2.5160 0.0000 0.0000 0.0000 -0.0000 0.0000 0.0000 -17.2626 11.1339 -12.9906 74.9136 0.0000 0.0000 -33.0781 6.1297 10.5434 -6.1812 0.0000 -0.0000 -30.9693 8.6587 -15.1885 44.8583 0.0000 0.0000 -16.3518 -0.2455 -2.3211 3.4700 0.0000 0.0000
 1.5031 36.3083 20.7013 8.0210 4.0499 -167.3893 33.2078 -1.1688 0.3977 4.9589 -1.4106 0.6107 8.9522 -1.2789 11.0049 0.6915 2.7065 1.0678 -11.2066 25.3796 17.9811 -4.2769 -1.8333 25.3978 -2.2351 17.2214 8.7344 -24.6084 -54.3529 -1.8799 -0.0001 0.0001 136.5876 46.3948 13.3319 -40.0358 0.0000 0.0000 -0.0000 -0.0000 0.0000 -0.0000 0.2374 -6.4552 -12.4386 42.4820 63.1020 -83.6624 -0.0001 -0.0001 -99.6695 11.6187 -32.7581 2.5045 0.0000 0.0000 -0.0000 -0.0000 -0.0000 0.0000 -16.8439 10.9768 -13.6276 73.9729 0.0000 0.0000 -34.5060 6.8625 10.1599 -5.8630 0.0000 -0.0000 -31.0533 8.4086 -14.8233 44.5253 0.0000 0.0000 -16.5750 -0.1355 -2.5095 3.5384 0.0000 0.0000
